<svg id="Слой_1" data-name="Слой 1" xmlns="http://www.w3.org/2000/svg" viewBox="0 0 16 16"><defs><style>.cls-1{fill:#999ea8;fill-rule:evenodd;}</style></defs><title>insta</title><path class="cls-1" d="M11.37,16H4.63A4.62,4.62,0,0,1,0,11.37V4.63A4.62,4.62,0,0,1,4.63,0h6.74A4.62,4.62,0,0,1,16,4.63v6.74A4.62,4.62,0,0,1,11.37,16ZM14.55,4.75a3.3,3.3,0,0,0-3.31-3.31H4.75A3.3,3.3,0,0,0,1.45,4.75v6.49a3.3,3.3,0,0,0,3.31,3.31h6.49a3.3,3.3,0,0,0,3.31-3.31Zm-2.34-.07a1,1,0,1,1,1-1A1,1,0,0,1,12.21,4.69ZM8,12.07A4.07,4.07,0,1,1,12.07,8,4.07,4.07,0,0,1,8,12.07ZM8,5.38A2.62,2.62,0,1,0,10.62,8,2.62,2.62,0,0,0,8,5.38Z"/></svg>